<svg width="118" height="107" viewBox="0 0 118 107" fill="none" xmlns="http://www.w3.org/2000/svg">
    <path fill-rule="evenodd" clip-rule="evenodd"
          d="M43.43 2.49107e-08H74.57C81.7449 -3.78979e-06 87.2206 -6.64592e-06 91.5894 0.35694C95.99 0.716477 99.3994 1.44562 102.409 2.97916C107.552 5.59969 111.734 9.78116 114.354 14.9243C115.888 17.934 116.617 21.3434 116.976 25.7439C117.333 30.1127 117.333 35.5885 117.333 42.7633V42.9034C117.333 50.0782 117.333 55.554 116.976 59.9228C116.617 64.3233 115.888 67.7327 114.354 70.7424C111.734 75.8855 107.552 80.067 102.409 82.6875C99.3994 84.221 95.99 84.9502 91.5894 85.3097C87.2206 85.6667 81.7449 85.6667 74.5701 85.6667H60.5V99.778C64.3297 99.886 68.1505 100.408 71.8948 101.344L80.0305 103.378C80.8342 103.579 81.3228 104.393 81.1219 105.197C80.921 106.001 80.1066 106.489 79.3029 106.289L71.1672 104.255C67.173 103.256 63.0865 102.757 59 102.757C54.9135 102.757 50.8271 103.256 46.8328 104.255L38.6972 106.289C37.8935 106.489 37.0791 106.001 36.8781 105.197C36.6772 104.393 37.1659 103.579 37.9695 103.378L46.1052 101.344C49.8496 100.408 53.6704 99.886 57.5 99.778V85.6667H43.43C36.2551 85.6667 30.7794 85.6667 26.4106 85.3097C22.0101 84.9502 18.6007 84.221 15.5909 82.6875C10.4478 80.067 6.26638 75.8855 3.64584 70.7424C2.11231 67.7327 1.38316 64.3233 1.02363 59.9228C0.66668 55.554 0.666683 50.0782 0.666687 42.9033V42.7633C0.666683 35.5885 0.66668 30.1127 1.02363 25.7439C1.38316 21.3434 2.11231 17.934 3.64584 14.9243C6.26638 9.78116 10.4478 5.59969 15.5909 2.97916C18.6007 1.44562 22.0101 0.716477 26.4106 0.35694C30.7794 -6.64592e-06 36.2552 -3.78979e-06 43.43 2.49107e-08ZM74.5 82.6667C81.7588 82.6667 87.1126 82.6655 91.3451 82.3197C95.5601 81.9753 98.5308 81.2966 101.047 80.0145C105.626 77.6816 109.348 73.9591 111.681 69.3804C112.963 66.8641 113.642 63.8935 113.986 59.6785C114.332 55.446 114.333 50.0921 114.333 42.8333C114.333 35.5746 114.332 30.2207 113.986 25.9882C113.642 21.7732 112.963 18.8026 111.681 16.2862C109.348 11.7076 105.626 7.98509 101.047 5.65217C98.5308 4.37004 95.5601 3.69136 91.3451 3.34698C87.1126 3.00117 81.7588 3 74.5 3H43.5C36.2413 3 30.8874 3.00117 26.6549 3.34698C22.4399 3.69136 19.4692 4.37004 16.9529 5.65217C12.3743 7.98509 8.65178 11.7076 6.31886 16.2862C5.03673 18.8026 4.35804 21.7732 4.01366 25.9882C3.66785 30.2207 3.66669 35.5746 3.66669 42.8333C3.66669 50.0921 3.66785 55.446 4.01366 59.6785C4.35804 63.8935 5.03673 66.8641 6.31886 69.3804C8.65178 73.9591 12.3743 77.6816 16.9529 80.0145C19.4692 81.2966 22.4399 81.9753 26.6549 82.3197C30.8874 82.6655 36.2413 82.6667 43.5 82.6667H74.5Z"
          fill="#1F8FEB"/>
    <path fill-rule="evenodd" clip-rule="evenodd"
          d="M74.2026 28.0815C74.7884 28.6672 74.7884 29.617 74.2026 30.2028L61.1212 43.2843L74.2026 56.3657C74.7884 56.9515 74.7884 57.9013 74.2026 58.487C73.6169 59.0728 72.6671 59.0728 72.0813 58.487L58.9998 45.4056L45.9184 58.487C45.3326 59.0728 44.3828 59.0728 43.7971 58.487C43.2113 57.9013 43.2113 56.9515 43.7971 56.3657L56.8785 43.2843L43.7971 30.2028C43.2113 29.617 43.2113 28.6672 43.7971 28.0815C44.3828 27.4957 45.3326 27.4957 45.9184 28.0815L58.9998 41.1629L72.0813 28.0815C72.6671 27.4957 73.6169 27.4957 74.2026 28.0815Z"
          fill="#1F8FEB"/>
</svg>
