<svg width="124" height="124" viewBox="0 0 124 124" fill="none" xmlns="http://www.w3.org/2000/svg">
    <path fill-rule="evenodd" clip-rule="evenodd"
          d="M46.43 14H77.57C84.7449 14 90.2206 14 94.5894 14.3569C98.9899 14.7165 102.399 15.4456 105.409 16.9792C110.552 19.5997 114.734 23.7812 117.354 28.9243C118.888 31.934 119.617 35.3434 119.976 39.7439C120.333 44.1127 120.333 49.5885 120.333 56.7633V56.9034C120.333 64.0782 120.333 69.554 119.976 73.9228C119.617 78.3233 118.888 81.7327 117.354 84.7424C114.734 89.8855 110.552 94.067 105.409 96.6875C102.399 98.221 98.9899 98.9502 94.5894 99.3097C90.2206 99.6667 84.7449 99.6667 77.57 99.6667H63.5V113.778C67.3296 113.886 71.1504 114.408 74.8948 115.344L83.0305 117.378C83.8342 117.579 84.3228 118.393 84.1219 119.197C83.9209 120.001 83.1065 120.489 82.3028 120.289L74.1672 118.255C70.1729 117.256 66.0865 116.757 62 116.757C57.9135 116.757 53.8271 117.256 49.8328 118.255L41.6971 120.289C40.8934 120.489 40.079 120.001 39.8781 119.197C39.6772 118.393 40.1658 117.579 40.9695 117.378L49.1052 115.344C52.8495 114.408 56.6704 113.886 60.5 113.778V99.6667H46.43C39.2551 99.6667 33.7794 99.6667 29.4106 99.3097C25.01 98.9502 21.6007 98.221 18.5909 96.6875C13.4478 94.067 9.26636 89.8855 6.64582 84.7424C5.11229 81.7327 4.38314 78.3233 4.0236 73.9228C3.66666 69.554 3.66666 64.0782 3.66666 56.9033V56.7633C3.66666 49.5885 3.66666 44.1127 4.0236 39.7439C4.38314 35.3434 5.11229 31.934 6.64582 28.9243C9.26636 23.7812 13.4478 19.5997 18.5909 16.9792C21.6007 15.4456 25.01 14.7165 29.4106 14.3569C33.7794 14 39.2551 14 46.43 14ZM77.5 96.6667C84.7588 96.6667 90.1126 96.6655 94.3451 96.3197C98.5601 95.9753 101.531 95.2966 104.047 94.0145C108.626 91.6816 112.348 87.9591 114.681 83.3804C115.963 80.8641 116.642 77.8935 116.986 73.6785C117.332 69.446 117.333 64.0921 117.333 56.8333C117.333 49.5746 117.332 44.2207 116.986 39.9882C116.642 35.7732 115.963 32.8026 114.681 30.2862C112.348 25.7076 108.626 21.9851 104.047 19.6522C101.531 18.37 98.5601 17.6914 94.3451 17.347C90.1126 17.0012 84.7588 17 77.5 17H46.5C39.2412 17 33.8874 17.0012 29.6549 17.347C25.4399 17.6914 22.4692 18.37 19.9529 19.6522C15.3743 21.9851 11.6518 25.7076 9.31884 30.2862C8.03671 32.8026 7.35802 35.7732 7.01364 39.9882C6.66783 44.2207 6.66666 49.5746 6.66666 56.8333C6.66666 64.0921 6.66783 69.446 7.01364 73.6785C7.35802 77.8935 8.03671 80.8641 9.31884 83.3804C11.6518 87.9591 15.3743 91.6816 19.9529 94.0145C22.4692 95.2966 25.4399 95.9753 29.6549 96.3197C33.8874 96.6655 39.2412 96.6667 46.5 96.6667H77.5Z"
          fill="#1F8FEB"/>
    <path fill-rule="evenodd" clip-rule="evenodd"
          d="M40.5 54.284C40.5 43.9099 48.9099 35.5 59.284 35.5C69.6581 35.5 78.068 43.9099 78.068 54.284C78.068 64.6581 69.6581 73.068 59.284 73.068C48.9099 73.068 40.5 64.6581 40.5 54.284ZM59.284 38.5C50.5667 38.5 43.5 45.5667 43.5 54.284C43.5 63.0013 50.5667 70.068 59.284 70.068C68.0013 70.068 75.068 63.0013 75.068 54.284C75.068 45.5667 68.0013 38.5 59.284 38.5ZM75.2574 70.2576C75.8432 69.6719 76.793 69.6719 77.3788 70.2577L83.0603 75.9394C83.6461 76.5251 83.6461 77.4749 83.0603 78.0607C82.4745 78.6465 81.5248 78.6464 80.939 78.0606L75.2574 72.379C74.6716 71.7932 74.6716 70.8434 75.2574 70.2576Z"
          fill="#1F8FEB"/>
    <path fill-rule="evenodd" clip-rule="evenodd"
          d="M64.4186 49.1492C65.0044 49.735 65.0044 50.6847 64.4186 51.2705L61.4053 54.2837L64.4186 57.2969C65.0044 57.8827 65.0044 58.8325 64.4186 59.4183C63.8328 60.0041 62.883 60.0041 62.2972 59.4183L59.284 56.405L56.2708 59.4183C55.685 60.0041 54.7353 60.0041 54.1495 59.4183C53.5637 58.8325 53.5637 57.8827 54.1495 57.2969L57.1627 54.2837L54.1495 51.2705C53.5637 50.6847 53.5637 49.735 54.1495 49.1492C54.7353 48.5634 55.685 48.5634 56.2708 49.1492L59.284 52.1624L62.2972 49.1492C62.883 48.5634 63.8328 48.5634 64.4186 49.1492Z"
          fill="#1F8FEB"/>
</svg>
