<svg width="1em" height="1em" viewBox="0 0 24 24" fill="currentColor" xmlns="http://www.w3.org/2000/svg">
    <path d="M4.22184 4.22179C4.80763 3.63601 5.75737 3.63601 6.34316 4.22179L19.7782 17.6568C20.364 18.2426 20.364 19.1924 19.7782 19.7781C19.1924 20.3639 18.2427 20.3639 17.6569 19.7781L4.22184 6.34311C3.63605 5.75733 3.63605 4.80758 4.22184 4.22179Z"
    />
    <path d="M19.7782 4.22157C20.364 4.80735 20.364 5.7571 19.7782 6.34289L6.34318 19.7779C5.75739 20.3637 4.80764 20.3637 4.22186 19.7779C3.63607 19.1921 3.63607 18.2424 4.22186 17.6566L17.6569 4.22157C18.2427 3.63578 19.1924 3.63578 19.7782 4.22157Z"
    />
</svg>
