<svg width="1em" height="1em" viewBox="0 0 19 20" fill="none" xmlns="http://www.w3.org/2000/svg">
<path fill-rule="evenodd" clip-rule="evenodd" d="M17.0728 5.98797L16.5022 4.99788C16.0195 4.16012 14.9498 3.87111 14.1109 4.35181V4.35181C13.7116 4.58705 13.2351 4.65379 12.7865 4.53732C12.3379 4.42084 11.954 4.13071 11.7196 3.73091C11.5688 3.47679 11.4877 3.18735 11.4846 2.89186V2.89186C11.4983 2.41811 11.3195 1.95902 10.9892 1.61918C10.6588 1.27935 10.205 1.0877 9.73103 1.08789H8.58152C8.1172 1.08789 7.67202 1.27291 7.34448 1.60202C7.01694 1.93113 6.83406 2.3772 6.83629 2.84151V2.84151C6.82253 3.80017 6.04142 4.57006 5.08267 4.56996C4.78717 4.5669 4.49773 4.48585 4.24361 4.33503V4.33503C3.4047 3.85433 2.335 4.14334 1.85231 4.9811L1.2398 5.98797C0.75769 6.82468 1.04276 7.89371 1.87748 8.37927V8.37927C2.42006 8.69252 2.7543 9.27144 2.7543 9.89796C2.7543 10.5245 2.42006 11.1034 1.87748 11.4166V11.4166C1.04382 11.8989 0.758439 12.9654 1.2398 13.7996V13.7996L1.81875 14.798C2.04491 15.2061 2.42437 15.5073 2.87316 15.6348C3.32195 15.7624 3.80307 15.7058 4.21005 15.4777V15.4777C4.61014 15.2442 5.0869 15.1803 5.53438 15.3C5.98185 15.4197 6.36295 15.7133 6.59296 16.1153C6.74379 16.3695 6.82483 16.6589 6.8279 16.9544V16.9544C6.8279 17.9229 7.61302 18.708 8.58152 18.708H9.73103C10.6963 18.708 11.48 17.928 11.4846 16.9628V16.9628C11.4824 16.497 11.6664 16.0497 11.9958 15.7203C12.3252 15.391 12.7725 15.2069 13.2383 15.2092C13.5331 15.2171 13.8213 15.2978 14.0773 15.4441V15.4441C14.914 15.9262 15.9831 15.6411 16.4686 14.8064V14.8064L17.0728 13.7996C17.3066 13.3982 17.3708 12.9202 17.2511 12.4713C17.1314 12.0225 16.8377 11.6399 16.4351 11.4083V11.4083C16.0324 11.1766 15.7387 10.794 15.6191 10.3452C15.4994 9.89635 15.5636 9.41832 15.7974 9.01695C15.9495 8.75146 16.1696 8.53133 16.4351 8.37927V8.37927C17.2648 7.89397 17.5492 6.83119 17.0728 5.99636V5.99636V5.98797Z"
      stroke="currentColor" stroke-width="1.5" stroke-linecap="round" stroke-linejoin="round"/>
<ellipse cx="9.16047" cy="9.89792" rx="2.41648" ry="2.41648" stroke="currentColor" stroke-width="1.5" stroke-linecap="round" stroke-linejoin="round"/>
</svg>
