<svg width="20" height="20" viewBox="0 0 20 20" fill="none" xmlns="http://www.w3.org/2000/svg">
    <path opacity="0.33" fill-rule="evenodd" clip-rule="evenodd"
          d="M10 16C13.3137 16 16 13.3137 16 10C16 6.68629 13.3137 4 10 4C6.68629 4 4 6.68629 4 10C4 13.3137 6.68629 16 10 16ZM10 20C15.5228 20 20 15.5228 20 10C20 4.47715 15.5228 0 10 0C4.47715 0 0 4.47715 0 10C0 15.5228 4.47715 20 10 20Z"
          fill="#1F8FEB"/>
    <path fill-rule="evenodd" clip-rule="evenodd"
          d="M8 2C8 0.895431 8.89543 0 10 0C12.2526 0 14.4392 0.760522 16.2055 2.15836C17.9719 3.5562 19.2146 5.50947 19.7323 7.70173C19.9862 8.77674 19.3205 9.85399 18.2455 10.1079C17.1705 10.3617 16.0932 9.69604 15.8394 8.62104C15.5288 7.30568 14.7831 6.13372 13.7233 5.29502C12.6635 4.45631 11.3515 4 10 4C8.89543 4 8 3.10457 8 2Z"
          fill="#16D1D6"/>
</svg>
