<svg width="1em" height="1em" viewBox="0 0 14 16" fill="currentColor" xmlns="http://www.w3.org/2000/svg">
    <path fill-rule="evenodd" clip-rule="evenodd"
          d="M11.142 4.547V5.69701C12.4338 6.10022 13.375 7.2696 13.375 8.6663V12.369C13.375 14.0981 11.9415 15.5 10.1742 15.5H3.8266C2.05852 15.5 0.625 14.0981 0.625 12.369V8.6663C0.625 7.2696 1.56696 6.10022 2.85796 5.69701V4.547C2.86559 2.31109 4.7175 0.5 6.98857 0.5C9.29012 0.5 11.142 2.31109 11.142 4.547ZM7.00381 1.80428C8.55088 1.80428 9.80835 3.03404 9.80835 4.547V5.53528H4.19165V4.5321C4.19927 3.02658 5.45674 1.80428 7.00381 1.80428ZM7.66684 11.3412C7.66684 11.7064 7.36962 11.9971 6.99619 11.9971C6.63038 11.9971 6.33316 11.7064 6.33316 11.3412V9.68662C6.33316 9.32888 6.63038 9.03821 6.99619 9.03821C7.36962 9.03821 7.66684 9.32888 7.66684 9.68662V11.3412Z"
    />
</svg>
