<svg width="1em" height="1em" viewBox="0 0 22 22" fill="currentColor" xmlns="http://www.w3.org/2000/svg">
    <path fill-rule="evenodd" clip-rule="evenodd"
          d="M19.6602 19.4836C18.6009 20.6212 17.0961 21.25 15.3341 21.25L6.66509 21.25C4.90302 21.25 3.39843 20.6212 2.33939 19.4835C1.28788 18.3539 0.750094 16.8039 0.750094 15.084L0.750095 6.916C0.750095 5.19472 1.29121 3.64491 2.34364 2.51598C3.40331 1.37929 4.9073 0.749997 6.6651 0.749997L15.3341 0.749998C17.0962 0.749998 18.6009 1.37881 19.6602 2.51641C20.712 3.64596 21.2501 5.19597 21.2501 6.916L21.2501 15.084C21.2501 16.804 20.712 18.354 19.6602 19.4836ZM18.1965 18.1207C18.8452 17.424 19.2501 16.391 19.2501 15.084L19.2501 6.916C19.2501 5.60903 18.8452 4.57604 18.1965 3.87933C17.5553 3.19068 16.602 2.75 15.3341 2.75L6.6651 2.75C5.40289 2.75 4.44938 3.19021 3.80655 3.87976C3.15648 4.57708 2.75009 5.61027 2.75009 6.916L2.75009 15.084C2.75009 16.3911 3.1548 17.4241 3.8033 18.1208C4.44426 18.8093 5.39717 19.25 6.66509 19.25L15.3341 19.25C16.602 19.25 17.5553 18.8093 18.1965 18.1207Z"
    />
    <path fill-rule="evenodd" clip-rule="evenodd"
          d="M11.0001 16.0859C10.4478 16.0859 10.0001 15.6382 10.0001 15.0859L10.0001 6.91394C10.0001 6.36165 10.4478 5.91394 11.0001 5.91394C11.5524 5.91394 12.0001 6.36165 12.0001 6.91394L12.0001 15.0859C12.0001 15.6382 11.5524 16.0859 11.0001 16.0859Z"
    />
    <path fill-rule="evenodd" clip-rule="evenodd"
          d="M15.4537 11.3863C15.0623 11.776 14.4292 11.7747 14.0395 11.3833L11.0001 8.33097L7.96071 11.3833C7.57102 11.7747 6.93785 11.776 6.5465 11.3863C6.15514 10.9967 6.1538 10.3635 6.54349 9.97213L10.2915 6.20814C10.4791 6.01968 10.7341 5.91374 11.0001 5.91374C11.2661 5.91374 11.5211 6.01968 11.7087 6.20814L15.4567 9.97214C15.8464 10.3635 15.8451 10.9967 15.4537 11.3863Z"
    />
</svg>
