<svg width="18" height="18" viewBox="0 0 18 18" fill="none" xmlns="http://www.w3.org/2000/svg">
<path d="M1.31063 1.23743C1.52338 1.09152 1.79963 1.07604 2.02734 1.19729L8.07106 4.41533L4.16374 6.31723L1.01001 4.41977V1.80816C1.01001 1.57999 1.12247 1.36649 1.31063 1.23743Z" fill="white"/>
<path d="M16.6903 1.23743C16.4776 1.09152 16.2013 1.07604 15.9736 1.19729L9.92992 4.41533L13.8372 6.31723L16.991 4.41977V1.80816C16.991 1.57999 16.8785 1.36649 16.6903 1.23743Z" fill="white"/>
<path d="M4.13901 8.25147L1.00931 6.38148C1.00931 6.38148 0.716318 11.0587 3.41748 13.4428C3.41748 13.4428 7.35579 17.0466 9.00006 16.9996V5.95154L4.13901 8.25147Z" fill="white"/>
<path d="M13.861 8.25147L16.9907 6.38148C16.9907 6.38148 17.2837 11.0587 14.5825 13.4428C14.5825 13.4428 10.6442 17.0466 8.99994 16.9996V5.95154L13.861 8.25147Z" fill="white"/>
</svg>
