<svg width="19" height="24" viewBox="0 0 19 24" fill="none" xmlns="http://www.w3.org/2000/svg">
    <path d="M18.4404 9.64822C18.8179 7.12638 16.8963 5.7708 14.2686 4.86649L15.1211 1.45043L13.0398 0.932283L12.21 4.2584C11.6629 4.12205 11.101 3.99358 10.5425 3.86622L11.3784 0.518151L9.29841 0L8.44552 3.41494C7.99274 3.31194 7.54803 3.21015 7.11658 3.10288L7.11899 3.09214L4.24891 2.37605L3.69528 4.59704C3.69528 4.59704 5.23938 4.95068 5.20684 4.97245C6.04963 5.18262 6.20204 5.74005 6.17673 6.18187L5.20573 10.0736C5.26376 10.0883 5.33904 10.1096 5.4221 10.1429C5.35267 10.1257 5.27878 10.1069 5.20211 10.0886L3.8411 15.5403C3.73811 15.7961 3.47668 16.18 2.88744 16.0342C2.9083 16.0644 1.37476 15.6571 1.37476 15.6571L0.341461 18.0374L3.04986 18.712C3.55371 18.8382 4.04746 18.9703 4.53371 19.0945L3.67247 22.5498L5.7513 23.0679L6.60419 19.6493C7.17211 19.8034 7.72325 19.9455 8.26279 20.0794L7.41277 23.4819L9.49411 24L10.3553 20.5513C13.9042 21.2223 16.5727 20.9518 17.696 17.7445C18.6011 15.1623 17.6509 13.6728 15.7838 12.7016C17.1437 12.3882 18.168 11.4945 18.4411 9.6485L18.4405 9.64804L18.4404 9.64822ZM13.6852 16.3105C13.042 18.8927 8.69063 17.4968 7.27983 17.1468L8.42271 12.5692C9.83341 12.9211 14.3575 13.6174 13.6853 16.3105H13.6852ZM14.3289 9.6108C13.7422 11.9596 10.1204 10.7663 8.94557 10.4737L9.98174 6.32211C11.1566 6.61471 14.9401 7.16084 14.3291 9.6108H14.3289Z"
          fill="white"/>
</svg>
