<svg width="24" height="24" viewBox="0 0 24 24" fill="none" xmlns="http://www.w3.org/2000/svg">
    <path fill-rule="evenodd" clip-rule="evenodd"
          d="M14.0959 8.7347e-07H16.8789C17.8321 -2.0876e-05 18.6341 -3.95179e-05 19.2906 0.0538869C19.9774 0.110295 20.6315 0.232894 21.2529 0.551183C22.1993 1.03602 22.9688 1.80964 23.4511 2.76118C23.7677 3.38586 23.8896 4.04349 23.9457 4.73389C23.9994 5.39393 23.9993 6.20025 23.9993 7.1586V9.8124C23.9993 10.7708 23.9994 11.5771 23.9457 12.2371C23.8896 12.9275 23.7677 13.5851 23.4511 14.2098C22.9688 15.1614 22.1993 15.935 21.2529 16.4198C20.6315 16.7381 19.9774 16.8607 19.2906 16.9171C18.6341 16.971 17.8321 16.971 16.8789 16.971H8.56807C7.9843 16.971 7.45751 16.6189 7.23162 16.0777C7.00574 15.5365 7.12485 14.9119 7.53381 14.4931L14.3969 7.46472L16.4654 9.50627L12.0219 14.0568H16.8208C17.8474 14.0568 18.5302 14.0556 19.0546 14.0126C19.5621 13.9709 19.7923 13.8973 19.9369 13.8232C20.3379 13.6178 20.664 13.29 20.8683 12.8868C20.942 12.7414 21.0152 12.51 21.0567 11.9998C21.0995 11.4726 21.1006 10.7862 21.1006 9.75404V7.21696C21.1006 6.18485 21.0995 5.49839 21.0567 4.9712C21.0152 4.46102 20.942 4.22959 20.8683 4.0842C20.664 3.68101 20.3379 3.3532 19.9369 3.14776C19.7923 3.07369 19.5621 3.0001 19.0546 2.95842C18.5302 2.91535 17.8474 2.91421 16.8208 2.91421H14.1544C13.1165 2.91421 12.4258 2.91536 11.8956 2.95912C11.3822 3.0015 11.1501 3.07633 11.005 3.15134C10.6016 3.35988 10.2748 3.69241 10.0723 4.10054C9.9995 4.24732 9.9279 4.48154 9.89201 4.99818C9.85495 5.53167 9.86223 6.22609 9.87489 7.26943L9.88942 8.46773L6.99095 8.50327L6.9757 7.24616C6.96392 6.27709 6.95402 5.46224 7.00037 4.79514C7.04882 4.09772 7.16445 3.43256 7.47844 2.79972C7.95633 1.83654 8.72745 1.05178 9.67961 0.559612C10.3052 0.236249 10.9654 0.111896 11.6584 0.0546848C12.3214 -3.96855e-05 13.1319 -2.10486e-05 14.0959 8.7347e-07Z"
          fill="white"/>
    <path fill-rule="evenodd" clip-rule="evenodd"
          d="M4.94465 21.0418C5.46904 21.0849 6.15183 21.086 7.17844 21.086H9.88957C10.8257 21.086 11.4482 21.0851 11.9278 21.0491C12.3925 21.0142 12.6057 20.9524 12.7392 20.8909C13.2029 20.677 13.575 20.3029 13.7877 19.8367C13.8489 19.7025 13.9104 19.4882 13.9451 19.021C13.9809 18.5389 13.9818 17.913 13.9818 16.9718H16.8805L16.8805 17.025C16.8805 17.899 16.8806 18.6344 16.8357 19.2379C16.7889 19.8686 16.6873 20.4713 16.4224 21.0518C15.9203 22.1521 15.0423 23.0349 13.9478 23.5397C13.3704 23.806 12.7709 23.9081 12.1436 23.9552C11.5432 24.0003 10.8118 24.0003 9.94246 24.0002L7.12035 24.0002C6.16712 24.0003 5.36512 24.0003 4.7086 23.9464C4.02188 23.8899 3.36775 23.7674 2.7464 23.4491C1.79993 22.9642 1.03043 22.1906 0.548178 21.2391C0.231583 20.6144 0.109638 19.9568 0.0535297 19.2663C-0.000108719 18.6063 -8.96454e-05 17.8 -6.86646e-05 16.8416V14.1878C-8.96454e-05 13.2295 -0.000108719 12.4232 0.0535297 11.7631C0.109638 11.0727 0.231585 10.4151 0.548178 9.79042C1.03043 8.83888 1.79993 8.06526 2.7464 7.58042C3.36775 7.26213 4.02188 7.13953 4.70861 7.08312C5.36513 7.0292 6.16715 7.02922 7.1204 7.02924H15.4312C16.2316 7.02924 16.8805 7.68161 16.8805 8.48635C16.8805 9.29108 16.2316 9.94345 15.4312 9.94345H7.17845C6.15183 9.94345 5.46904 9.94459 4.94465 9.98766C4.43719 10.0293 4.20699 10.1029 4.06238 10.177C3.66133 10.3824 3.33527 10.7102 3.13093 11.1134C3.05724 11.2588 2.98405 11.4903 2.94259 12.0004C2.89975 12.5276 2.89862 13.2141 2.89862 14.2462V16.7833C2.89862 17.8154 2.89975 18.5018 2.94259 19.029C2.98405 19.5392 3.05724 19.7707 3.13093 19.916C3.33527 20.3192 3.66133 20.647 4.06238 20.8525C4.20699 20.9266 4.43719 21.0001 4.94465 21.0418Z"
          fill="white"/>
</svg>
