<svg width="1em" height="1em" viewBox="0 0 22 18" fill="currentColor" xmlns="http://www.w3.org/2000/svg">
    <path d="M0 1.5C0 0.671573 0.671573 0 1.5 0H20.5C21.3284 0 22 0.671573 22 1.5C22 2.32843 21.3284 3 20.5 3H1.5C0.671573 3 0 2.32843 0 1.5Z"
    />
    <path d="M0 9C0 8.17157 0.671573 7.5 1.5 7.5H20.5C21.3284 7.5 22 8.17157 22 9C22 9.82843 21.3284 10.5 20.5 10.5H1.5C0.671573 10.5 0 9.82843 0 9Z"
    />
    <path d="M0 16.5C0 15.6716 0.671573 15 1.5 15H20.5C21.3284 15 22 15.6716 22 16.5C22 17.3284 21.3284 18 20.5 18H1.5C0.671573 18 0 17.3284 0 16.5Z"
    />
</svg>
