<svg width="15" height="15" viewBox="0 0 15 15" fill="none" xmlns="http://www.w3.org/2000/svg">
    <path d="M0 7.5C0 3.35786 3.35786 0 7.5 0C11.6421 0 15 3.35786 15 7.5C15 11.6421 11.6421 15 7.5 15C3.35786 15 0 11.6421 0 7.5Z"
          fill="#16D1D6"/>
    <path fill-rule="evenodd" clip-rule="evenodd"
          d="M11.3067 4.5472C11.6121 4.82707 11.6327 5.3015 11.3529 5.60686L6.95347 10.4069C6.81143 10.5618 6.61087 10.6501 6.40065 10.6501C6.19043 10.6501 5.98985 10.5619 5.84778 10.407L3.64716 8.00697C3.36722 7.70167 3.38778 7.22724 3.69308 6.94731C3.99838 6.66737 4.47281 6.68793 4.75275 6.99323L6.40046 8.79023L10.2471 4.59335C10.5269 4.28799 11.0014 4.26733 11.3067 4.5472Z"
          fill="white"/>
</svg>
