<svg width="21" height="21" viewBox="0 0 21 21" fill="none" xmlns="http://www.w3.org/2000/svg">
    <g clip-path="url(#clip0_1333_5618)">
        <path fill-rule="evenodd" clip-rule="evenodd"
              d="M10.4546 0.25H10.5454C12.486 0.249992 14.0037 0.249986 15.207 0.380359C16.4338 0.513269 17.4224 0.788849 18.2653 1.4012C18.777 1.77299 19.227 2.22301 19.5988 2.73474C20.2112 3.57757 20.4867 4.56625 20.6196 5.79299C20.75 6.99632 20.75 8.51401 20.75 10.4546V10.5454C20.75 12.486 20.75 14.0037 20.6196 15.207C20.4867 16.4338 20.2112 17.4224 19.5988 18.2653C19.2449 18.7523 18.8202 19.1834 18.3389 19.5444C18.3145 19.5627 18.29 19.5809 18.2653 19.5988C17.4224 20.2112 16.4338 20.4867 15.207 20.6196C14.0037 20.75 12.486 20.75 10.5454 20.75H10.4546C8.51401 20.75 6.99632 20.75 5.79299 20.6196C4.56625 20.4867 3.57757 20.2112 2.73474 19.5988C2.71144 19.5819 2.68828 19.5648 2.66526 19.5476C2.18222 19.1859 1.75608 18.7537 1.4012 18.2653C0.788849 17.4224 0.513269 16.4338 0.380359 15.207C0.249986 14.0037 0.249992 12.486 0.25 10.5454V10.4546C0.249992 8.51402 0.249986 6.99633 0.380359 5.79299C0.513269 4.56625 0.788849 3.57757 1.4012 2.73474C1.77299 2.22301 2.22301 1.77299 2.73474 1.4012C3.57757 0.788849 4.56625 0.513269 5.79299 0.380359C6.99633 0.249986 8.51402 0.249992 10.4546 0.25ZM5.95456 1.87163C4.85544 1.99071 4.16093 2.21912 3.61642 2.61473C3.23203 2.894 2.894 3.23203 2.61473 3.61642C2.21912 4.16093 1.99071 4.85544 1.87163 5.95456C1.75103 7.06771 1.75 8.50427 1.75 10.5C1.75 12.4957 1.75103 13.9323 1.87163 15.0454C1.99047 16.1423 2.21816 16.8362 2.61225 17.3802C3.2679 15.4003 5.13371 13.9722 7.33333 13.9722H13.6667C15.8664 13.9722 17.732 15.4003 18.3877 17.3802C18.7818 16.8362 19.0095 16.1423 19.1284 15.0454C19.249 13.9323 19.25 12.4957 19.25 10.5C19.25 8.50427 19.249 7.06771 19.1284 5.95456C19.0093 4.85544 18.7809 4.16093 18.3853 3.61642C18.106 3.23203 17.768 2.894 17.3836 2.61473C16.8391 2.21912 16.1446 1.99071 15.0454 1.87163C13.9323 1.75103 12.4957 1.75 10.5 1.75C8.50427 1.75 7.06771 1.75103 5.95456 1.87163ZM17.1177 18.5579C16.9258 16.8225 15.4536 15.4722 13.6667 15.4722H7.33333C5.54633 15.4722 4.07435 16.8224 3.88234 18.5579C4.38676 18.8493 5.0264 19.0278 5.95456 19.1284C7.06771 19.249 8.50427 19.25 10.5 19.25C12.4957 19.25 13.9323 19.249 15.0454 19.1284C15.9736 19.0278 16.6133 18.8493 17.1177 18.5579ZM10.5 3.86111C8.58234 3.86111 7.02778 5.41568 7.02778 7.33333C7.02778 9.25099 8.58234 10.8056 10.5 10.8056C12.4177 10.8056 13.9722 9.25099 13.9722 7.33333C13.9722 5.41568 12.4177 3.86111 10.5 3.86111ZM5.52778 7.33333C5.52778 4.58725 7.75392 2.36111 10.5 2.36111C13.2461 2.36111 15.4722 4.58725 15.4722 7.33333C15.4722 10.0794 13.2461 12.3056 10.5 12.3056C7.75392 12.3056 5.52778 10.0794 5.52778 7.33333Z"
              fill="white"/>
    </g>
    <defs>
        <clipPath id="clip0_1333_5618">
            <rect width="21" height="21" fill="white"/>
        </clipPath>
    </defs>
</svg>
