<svg width="1em" height="1em" viewBox="0 0 20 20" fill="currentColor" xmlns="http://www.w3.org/2000/svg">
    <path fill-rule="evenodd" clip-rule="evenodd"
          d="M7.00009 10.7502C7.00009 8.67918 8.67902 7.00024 10.7501 7.00024H16C18.0711 7.00024 19.75 8.67918 19.75 10.7502V16.0002C19.75 18.0712 18.0711 19.7502 16 19.7502H10.7501C8.67902 19.7502 7.00009 18.0712 7.00009 16.0002V10.7502ZM10.7501 8.50024C9.50745 8.50024 8.50009 9.5076 8.50009 10.7502V16.0002C8.50009 17.2428 9.50745 18.2502 10.7501 18.2502H16C17.2427 18.2502 18.25 17.2428 18.25 16.0002V10.7502C18.25 9.5076 17.2427 8.50024 16 8.50024H10.7501Z"
    />
    <path fill-rule="evenodd" clip-rule="evenodd"
          d="M0.25 4C0.25 1.92893 1.92893 0.25 4 0.25H9.43745C11.405 0.25 12.9999 1.84498 12.9999 3.81248C12.9999 4.2267 12.6642 4.56248 12.2499 4.56248C11.8357 4.56248 11.4999 4.2267 11.4999 3.81248C11.4999 2.67341 10.5765 1.75 9.43745 1.75H4C2.75736 1.75 1.75 2.75736 1.75 4V9.43745C1.75 10.5765 2.67341 11.4999 3.81248 11.4999C4.2267 11.4999 4.56248 11.8357 4.56248 12.2499C4.56248 12.6642 4.2267 12.9999 3.81248 12.9999C1.84498 12.9999 0.25 11.405 0.25 9.43745V4Z"
    />
</svg>
