<svg width="20" height="20" viewBox="0 0 20 20" fill="none" xmlns="http://www.w3.org/2000/svg">
    <path fill-rule="evenodd" clip-rule="evenodd"
          d="M7.00006 10.7505C7.00006 8.67942 8.67899 7.00049 10.7501 7.00049H16C18.0711 7.00049 19.75 8.67942 19.75 10.7505V16.0004C19.75 18.0715 18.0711 19.7504 16 19.7504H10.7501C8.67899 19.7504 7.00006 18.0715 7.00006 16.0004V10.7505ZM10.7501 8.50049C9.50742 8.50049 8.50006 9.50785 8.50006 10.7505V16.0004C8.50006 17.2431 9.50742 18.2504 10.7501 18.2504H16C17.2426 18.2504 18.25 17.2431 18.25 16.0004V10.7505C18.25 9.50785 17.2426 8.50049 16 8.50049H10.7501Z"
          fill="#1F8FEB"/>
    <path fill-rule="evenodd" clip-rule="evenodd"
          d="M0.25 4C0.25 1.92893 1.92893 0.25 4 0.25H9.43745C11.405 0.25 12.9999 1.84498 12.9999 3.81248C12.9999 4.2267 12.6642 4.56248 12.2499 4.56248C11.8357 4.56248 11.4999 4.2267 11.4999 3.81248C11.4999 2.67341 10.5765 1.75 9.43745 1.75H4C2.75736 1.75 1.75 2.75736 1.75 4V9.43745C1.75 10.5765 2.67341 11.4999 3.81248 11.4999C4.2267 11.4999 4.56248 11.8357 4.56248 12.2499C4.56248 12.6642 4.2267 12.9999 3.81248 12.9999C1.84498 12.9999 0.25 11.405 0.25 9.43745V4Z"
          fill="#1F8FEB"/>
</svg>
