<svg width="18" height="18" viewBox="0 0 18 18" fill="none" xmlns="http://www.w3.org/2000/svg">
    <path d="M9 11C7.89543 11 7 10.1046 7 9C7 7.89543 7.89543 7 9 7C10.1046 7 11 7.89543 11 9C11 10.1046 10.1046 11 9 11Z"
          fill="white"/>
    <path d="M9 4C7.89543 4 7 3.10457 7 2C7 0.89543 7.89543 -1.35705e-07 9 -8.74228e-08C10.1046 -3.91405e-08 11 0.895431 11 2C11 3.10457 10.1046 4 9 4Z"
          fill="white"/>
    <path d="M9 18C7.89543 18 7 17.1046 7 16C7 14.8954 7.89543 14 9 14C10.1046 14 11 14.8954 11 16C11 17.1046 10.1046 18 9 18Z"
          fill="white"/>
</svg>
