<svg width="20" height="20" viewBox="0 0 20 20" fill="none" xmlns="http://www.w3.org/2000/svg">
<g opacity="0.8">
<path d="M9.22111 0.787231H5.59797C2.61826 0.787231 0.75 2.89677 0.75 5.88327V13.9396C0.75 16.9261 2.60954 19.0357 5.59797 19.0357H14.1485C17.1379 19.0357 18.9975 16.9261 18.9975 13.9396V10.0365" stroke="white" stroke-width="1.5" stroke-linecap="round" stroke-linejoin="round"/>
<path fill-rule="evenodd" clip-rule="evenodd" d="M6.63915 8.66732L13.8806 1.42589C14.7827 0.524705 16.245 0.524705 17.1471 1.42589L18.3264 2.60517C19.2286 3.50733 19.2286 4.97054 18.3264 5.87172L11.0501 13.148C10.6557 13.5424 10.1208 13.7643 9.56266 13.7643H5.93274L6.02383 10.1015C6.03739 9.56269 6.25736 9.04911 6.63915 8.66732Z" stroke="white" stroke-width="1.5" stroke-linecap="round" stroke-linejoin="round"/>
<path d="M12.7802 2.5448L17.2047 6.96931" stroke="white" stroke-width="1.5" stroke-linecap="round" stroke-linejoin="round"/>
</g>
</svg>
