<svg width="15" height="15" viewBox="0 0 15 15" fill="none" xmlns="http://www.w3.org/2000/svg">
    <path d="M0 7.5C0 3.35786 3.35786 0 7.5 0C11.6421 0 15 3.35786 15 7.5C15 11.6421 11.6421 15 7.5 15C3.35786 15 0 11.6421 0 7.5Z"
          fill="#FF6767"/>
    <path d="M4.49995 5.50093C4.22384 5.22481 4.22384 4.77714 4.49995 4.50102C4.77607 4.22491 5.22374 4.22491 5.49986 4.50103L10.4994 9.50054C10.7755 9.77666 10.7755 10.2243 10.4994 10.5004C10.2233 10.7766 9.77558 10.7766 9.49947 10.5004L4.49995 5.50093Z"
          fill="white"/>
    <path d="M9.49932 4.49995C9.77543 4.22384 10.2231 4.22384 10.4992 4.49995C10.7753 4.77607 10.7753 5.22374 10.4992 5.49986L5.4997 10.4994C5.22359 10.7755 4.77591 10.7755 4.4998 10.4994C4.22368 10.2233 4.22368 9.77558 4.4998 9.49947L9.49932 4.49995Z"
          fill="white"/>
</svg>
