<svg width="18" height="18" viewBox="0 0 18 18" fill="none" xmlns="http://www.w3.org/2000/svg">
    <path fill-rule="evenodd" clip-rule="evenodd"
          d="M16.8904 2.68767C17.0629 2.9033 17.028 3.21795 16.8124 3.39045L1.81235 15.3905C1.59672 15.563 1.28207 15.528 1.10957 15.3124C0.937064 15.0967 0.972025 14.7821 1.18766 14.6096L3.62642 12.6586C2.97602 11.9786 2.42786 11.2806 2.00916 10.6973C1.99234 10.6739 1.97564 10.6507 1.95909 10.6277C1.56395 10.0784 1.25269 9.64564 1.25269 9C1.25269 8.35435 1.56402 7.92157 1.95923 7.37217C1.97579 7.34915 1.9925 7.32593 2.00933 7.30248C2.65886 6.39771 3.62422 5.21064 4.80339 4.24516C5.97685 3.28437 7.41492 2.50002 9 2.50002C10.7884 2.50002 12.3932 3.49782 13.6522 4.63795L16.1877 2.60958C16.4033 2.43708 16.7179 2.47204 16.8904 2.68767ZM12.8603 5.27144C11.7055 4.25444 10.3772 3.50002 9 3.50002C7.74504 3.50002 6.52742 4.12601 5.43691 5.01889C4.35212 5.90709 3.44525 7.01705 2.82168 7.88566C2.35661 8.53347 2.25269 8.70736 2.25269 9C2.25269 9.29266 2.35657 9.46649 2.82151 10.1142C3.23502 10.6902 3.775 11.375 4.41057 12.0313L6.57572 10.2991C6.36797 9.91211 6.25 9.46947 6.25 9.00002C6.25 7.48124 7.48122 6.25002 9 6.25002C9.68811 6.25002 10.3173 6.50311 10.7993 6.92031L12.8603 5.27144ZM9.99741 7.56178C9.71428 7.36498 9.37064 7.25002 9 7.25002C8.0335 7.25002 7.25 8.03352 7.25 9.00002C7.25 9.2329 7.29529 9.45475 7.37761 9.65762L9.99741 7.56178ZM14.5446 6.26189C14.7584 6.08715 15.0734 6.11882 15.2481 6.33264C15.5268 6.67363 15.7755 7.00279 15.9906 7.30242C16.0075 7.32587 16.0242 7.34909 16.0407 7.37211C16.436 7.92155 16.7473 8.35436 16.7473 9.00001C16.7473 9.64567 16.436 10.0785 16.0408 10.6279C16.0242 10.6509 16.0075 10.6741 15.9907 10.6976C15.3411 11.6023 14.3758 12.7894 13.1966 13.7549C12.0232 14.7157 10.5851 15.5 9 15.5C7.64351 15.5 6.39572 14.9252 5.33331 14.1621C5.10903 14.001 5.05781 13.6886 5.2189 13.4643C5.38 13.24 5.69241 13.1888 5.91669 13.3499C6.88318 14.0441 7.92858 14.5 9 14.5C10.255 14.5 11.4726 13.874 12.5631 12.9811C13.6479 12.0929 14.5548 10.983 15.1783 10.1144C15.6434 9.46655 15.7473 9.29266 15.7473 9.00002C15.7473 8.70737 15.6434 8.53347 15.1783 7.8856C14.9737 7.6006 14.7376 7.28824 14.4738 6.96545C14.2991 6.75163 14.3307 6.43664 14.5446 6.26189ZM11.25 8.50002C11.5261 8.50002 11.75 8.72388 11.75 9.00002C11.75 10.5188 10.5188 11.75 9 11.75C8.72386 11.75 8.5 11.5262 8.5 11.25C8.5 10.9739 8.72386 10.75 9 10.75C9.9665 10.75 10.75 9.96652 10.75 9.00002C10.75 8.72388 10.9739 8.50002 11.25 8.50002Z"
          fill="white"/>
</svg>
