<svg width="124" height="124" viewBox="0 0 124 124" fill="none" xmlns="http://www.w3.org/2000/svg">
    <path fill-rule="evenodd" clip-rule="evenodd"
          d="M62 21C39.3563 21 21 39.3563 21 62H1C1 28.3106 28.3106 1 62 1V21ZM62 103C84.6437 103 103 84.6437 103 62H123C123 95.6894 95.6894 123 62 123V103Z"
          fill="white" fill-opacity="0.2"/>
    <path fill-rule="evenodd" clip-rule="evenodd"
          d="M62 21C39.3563 21 21 39.3563 21 62H1C1 28.3106 28.3106 1 62 1V21ZM62 103C84.6437 103 103 84.6437 103 62H123C123 95.6894 95.6894 123 62 123V103Z"
          fill="#16D1D6"/>
</svg>
