<svg width="107" height="36" viewBox="0 0 107 36" fill="none" xmlns="http://www.w3.org/2000/svg">
    <path fill-rule="evenodd" clip-rule="evenodd"
          d="M21.944 0.0351576H26.0846C27.5028 0.0351251 28.696 0.0350972 29.6728 0.115685C30.6945 0.19998 31.6677 0.383191 32.5921 0.858841C34.0003 1.58337 35.1452 2.73947 35.8627 4.16144C36.3337 5.09496 36.5151 6.07772 36.5986 7.10946C36.6784 8.09581 36.6784 9.30077 36.6784 10.7329V14.6987C36.6784 16.1309 36.6784 17.3359 36.5986 18.3222C36.5151 19.3539 36.3337 20.3367 35.8627 21.2702C35.1452 22.6922 34.0003 23.8483 32.5921 24.5728C31.6677 25.0485 30.6945 25.2317 29.6728 25.316C28.696 25.3966 27.5027 25.3965 26.0845 25.3965H13.7197C12.8511 25.3965 12.0674 24.8703 11.7313 24.0616C11.3952 23.2528 11.5725 22.3194 12.1809 21.6936L22.3918 11.1904L25.4694 14.2413L18.8583 21.0415H25.9981C27.5255 21.0415 28.5414 21.0398 29.3216 20.9755C30.0766 20.9132 30.4191 20.8032 30.6342 20.6925C31.2309 20.3855 31.716 19.8956 32.02 19.2931C32.1297 19.0758 32.2386 18.73 32.3003 17.9676C32.364 17.1797 32.3657 16.1539 32.3657 14.6115V10.8201C32.3657 9.27775 32.364 8.25192 32.3003 7.46409C32.2386 6.70167 32.1297 6.35582 32.02 6.13856C31.716 5.53603 31.2309 5.04616 30.6342 4.73916C30.4191 4.62846 30.0766 4.51849 29.3216 4.4562C28.5414 4.39183 27.5255 4.39014 25.9981 4.39014H22.031C20.4869 4.39014 19.4592 4.39185 18.6704 4.45725C17.9066 4.52058 17.5613 4.63241 17.3454 4.74449C16.7451 5.05614 16.259 5.55307 15.9577 6.16297C15.8494 6.38233 15.7428 6.73235 15.6894 7.50441C15.6343 8.30166 15.6451 9.33938 15.664 10.8985L15.6856 12.6893L11.3732 12.7424L11.3505 10.8638C11.333 9.41559 11.3183 8.1979 11.3872 7.20098C11.4593 6.15876 11.6314 5.16475 12.0985 4.21905C12.8095 2.77967 13.9568 1.60693 15.3734 0.871438C16.3042 0.388205 17.2864 0.202372 18.3175 0.116877C19.3038 0.0350969 20.5098 0.0351248 21.944 0.0351576Z"
          fill="url(#paint0_linear_1333_5403)"/>
    <path fill-rule="evenodd" clip-rule="evenodd"
          d="M21.944 0.0351576H26.0846C27.5028 0.0351251 28.696 0.0350972 29.6728 0.115685C30.6945 0.19998 31.6677 0.383191 32.5921 0.858841C34.0003 1.58337 35.1452 2.73947 35.8627 4.16144C36.3337 5.09496 36.5151 6.07772 36.5986 7.10946C36.6784 8.09581 36.6784 9.30077 36.6784 10.7329V14.6987C36.6784 16.1309 36.6784 17.3359 36.5986 18.3222C36.5151 19.3539 36.3337 20.3367 35.8627 21.2702C35.1452 22.6922 34.0003 23.8483 32.5921 24.5728C31.6677 25.0485 30.6945 25.2317 29.6728 25.316C28.696 25.3966 27.5027 25.3965 26.0845 25.3965H13.7197C12.8511 25.3965 12.0674 24.8703 11.7313 24.0616C11.3952 23.2528 11.5725 22.3194 12.1809 21.6936L22.3918 11.1904L25.4694 14.2413L18.8583 21.0415H25.9981C27.5255 21.0415 28.5414 21.0398 29.3216 20.9755C30.0766 20.9132 30.4191 20.8032 30.6342 20.6925C31.2309 20.3855 31.716 19.8956 32.02 19.2931C32.1297 19.0758 32.2386 18.73 32.3003 17.9676C32.364 17.1797 32.3657 16.1539 32.3657 14.6115V10.8201C32.3657 9.27775 32.364 8.25192 32.3003 7.46409C32.2386 6.70167 32.1297 6.35582 32.02 6.13856C31.716 5.53603 31.2309 5.04616 30.6342 4.73916C30.4191 4.62846 30.0766 4.51849 29.3216 4.4562C28.5414 4.39183 27.5255 4.39014 25.9981 4.39014H22.031C20.4869 4.39014 19.4592 4.39185 18.6704 4.45725C17.9066 4.52058 17.5613 4.63241 17.3454 4.74449C16.7451 5.05614 16.259 5.55307 15.9577 6.16297C15.8494 6.38233 15.7428 6.73235 15.6894 7.50441C15.6343 8.30166 15.6451 9.33938 15.664 10.8985L15.6856 12.6893L11.3732 12.7424L11.3505 10.8638C11.333 9.41559 11.3183 8.1979 11.3872 7.20098C11.4593 6.15876 11.6314 5.16475 12.0985 4.21905C12.8095 2.77967 13.9568 1.60693 15.3734 0.871438C16.3042 0.388205 17.2864 0.202372 18.3175 0.116877C19.3038 0.0350969 20.5098 0.0351248 21.944 0.0351576Z"
          fill="url(#paint1_radial_1333_5403)"/>
    <path fill-rule="evenodd" clip-rule="evenodd"
          d="M21.944 0.0351576H26.0846C27.5028 0.0351251 28.696 0.0350972 29.6728 0.115685C30.6945 0.19998 31.6677 0.383191 32.5921 0.858841C34.0003 1.58337 35.1452 2.73947 35.8627 4.16144C36.3337 5.09496 36.5151 6.07772 36.5986 7.10946C36.6784 8.09581 36.6784 9.30077 36.6784 10.7329V14.6987C36.6784 16.1309 36.6784 17.3359 36.5986 18.3222C36.5151 19.3539 36.3337 20.3367 35.8627 21.2702C35.1452 22.6922 34.0003 23.8483 32.5921 24.5728C31.6677 25.0485 30.6945 25.2317 29.6728 25.316C28.696 25.3966 27.5027 25.3965 26.0845 25.3965H13.7197C12.8511 25.3965 12.0674 24.8703 11.7313 24.0616C11.3952 23.2528 11.5725 22.3194 12.1809 21.6936L22.3918 11.1904L25.4694 14.2413L18.8583 21.0415H25.9981C27.5255 21.0415 28.5414 21.0398 29.3216 20.9755C30.0766 20.9132 30.4191 20.8032 30.6342 20.6925C31.2309 20.3855 31.716 19.8956 32.02 19.2931C32.1297 19.0758 32.2386 18.73 32.3003 17.9676C32.364 17.1797 32.3657 16.1539 32.3657 14.6115V10.8201C32.3657 9.27775 32.364 8.25192 32.3003 7.46409C32.2386 6.70167 32.1297 6.35582 32.02 6.13856C31.716 5.53603 31.2309 5.04616 30.6342 4.73916C30.4191 4.62846 30.0766 4.51849 29.3216 4.4562C28.5414 4.39183 27.5255 4.39014 25.9981 4.39014H22.031C20.4869 4.39014 19.4592 4.39185 18.6704 4.45725C17.9066 4.52058 17.5613 4.63241 17.3454 4.74449C16.7451 5.05614 16.259 5.55307 15.9577 6.16297C15.8494 6.38233 15.7428 6.73235 15.6894 7.50441C15.6343 8.30166 15.6451 9.33938 15.664 10.8985L15.6856 12.6893L11.3732 12.7424L11.3505 10.8638C11.333 9.41559 11.3183 8.1979 11.3872 7.20098C11.4593 6.15876 11.6314 5.16475 12.0985 4.21905C12.8095 2.77967 13.9568 1.60693 15.3734 0.871438C16.3042 0.388205 17.2864 0.202372 18.3175 0.116877C19.3038 0.0350969 20.5098 0.0351248 21.944 0.0351576Z"
          fill="url(#paint2_radial_1333_5403)"/>
    <path fill-rule="evenodd" clip-rule="evenodd"
          d="M21.944 0.0351576H26.0846C27.5028 0.0351251 28.696 0.0350972 29.6728 0.115685C30.6945 0.19998 31.6677 0.383191 32.5921 0.858841C34.0003 1.58337 35.1452 2.73947 35.8627 4.16144C36.3337 5.09496 36.5151 6.07772 36.5986 7.10946C36.6784 8.09581 36.6784 9.30077 36.6784 10.7329V14.6987C36.6784 16.1309 36.6784 17.3359 36.5986 18.3222C36.5151 19.3539 36.3337 20.3367 35.8627 21.2702C35.1452 22.6922 34.0003 23.8483 32.5921 24.5728C31.6677 25.0485 30.6945 25.2317 29.6728 25.316C28.696 25.3966 27.5027 25.3965 26.0845 25.3965H13.7197C12.8511 25.3965 12.0674 24.8703 11.7313 24.0616C11.3952 23.2528 11.5725 22.3194 12.1809 21.6936L22.3918 11.1904L25.4694 14.2413L18.8583 21.0415H25.9981C27.5255 21.0415 28.5414 21.0398 29.3216 20.9755C30.0766 20.9132 30.4191 20.8032 30.6342 20.6925C31.2309 20.3855 31.716 19.8956 32.02 19.2931C32.1297 19.0758 32.2386 18.73 32.3003 17.9676C32.364 17.1797 32.3657 16.1539 32.3657 14.6115V10.8201C32.3657 9.27775 32.364 8.25192 32.3003 7.46409C32.2386 6.70167 32.1297 6.35582 32.02 6.13856C31.716 5.53603 31.2309 5.04616 30.6342 4.73916C30.4191 4.62846 30.0766 4.51849 29.3216 4.4562C28.5414 4.39183 27.5255 4.39014 25.9981 4.39014H22.031C20.4869 4.39014 19.4592 4.39185 18.6704 4.45725C17.9066 4.52058 17.5613 4.63241 17.3454 4.74449C16.7451 5.05614 16.259 5.55307 15.9577 6.16297C15.8494 6.38233 15.7428 6.73235 15.6894 7.50441C15.6343 8.30166 15.6451 9.33938 15.664 10.8985L15.6856 12.6893L11.3732 12.7424L11.3505 10.8638C11.333 9.41559 11.3183 8.1979 11.3872 7.20098C11.4593 6.15876 11.6314 5.16475 12.0985 4.21905C12.8095 2.77967 13.9568 1.60693 15.3734 0.871438C16.3042 0.388205 17.2864 0.202372 18.3175 0.116877C19.3038 0.0350969 20.5098 0.0351248 21.944 0.0351576Z"
          fill="url(#paint3_radial_1333_5403)"/>
    <path fill-rule="evenodd" clip-rule="evenodd"
          d="M8.32875 31.4784C9.10893 31.5427 10.1248 31.5444 11.6522 31.5444H15.6858C17.0786 31.5444 18.0048 31.543 18.7183 31.4892C19.4098 31.4371 19.7269 31.3448 19.9254 31.2528C20.6154 30.9332 21.169 30.3742 21.4855 29.6774C21.5766 29.4769 21.668 29.1567 21.7196 28.4584C21.7729 27.7379 21.7743 26.8026 21.7743 25.3962H26.087L26.087 25.4757C26.087 26.7817 26.087 27.8807 26.0203 28.7827C25.9507 29.7251 25.7995 30.6258 25.4054 31.4933C24.6584 33.1376 23.352 34.4568 21.7237 35.2111C20.8646 35.6091 19.9726 35.7618 19.0394 35.8321C18.1461 35.8995 17.0579 35.8994 15.7645 35.8994L11.5658 35.8994C10.1475 35.8994 8.95432 35.8995 7.97756 35.8189C6.95585 35.7346 5.98263 35.5514 5.05819 35.0757C3.65002 34.3512 2.50516 33.1951 1.78766 31.7731C1.31663 30.8396 1.1352 29.8568 1.05172 28.8251C0.971918 27.8388 0.971947 26.6338 0.971979 25.2016V21.2358C0.971947 19.8037 0.971918 18.5987 1.05172 17.6124C1.1352 16.5806 1.31663 15.5979 1.78766 14.6643C2.50516 13.2424 3.65002 12.0863 5.05819 11.3617C5.98263 10.8861 6.95585 10.7029 7.97756 10.6186C8.95434 10.538 10.1476 10.538 11.5658 10.5381H23.9306C25.1216 10.5381 26.087 11.513 26.087 12.7156C26.087 13.9181 25.1216 14.893 23.9306 14.893H11.6522C10.1248 14.893 9.10893 14.8947 8.32875 14.9591C7.57374 15.0214 7.23125 15.1314 7.0161 15.2421C6.41942 15.5491 5.93431 16.0389 5.63028 16.6415C5.52066 16.8587 5.41176 17.2046 5.35008 17.967C5.28633 18.7548 5.28466 19.7807 5.28466 21.323V25.1144C5.28466 26.6568 5.28633 27.6826 5.35008 28.4705C5.41176 29.2329 5.52066 29.5787 5.63028 29.796C5.93431 30.3985 6.41942 30.8884 7.0161 31.1954C7.23125 31.3061 7.57374 31.4161 8.32875 31.4784Z"
          fill="url(#paint4_linear_1333_5403)"/>
    <path fill-rule="evenodd" clip-rule="evenodd"
          d="M8.32875 31.4784C9.10893 31.5427 10.1248 31.5444 11.6522 31.5444H15.6858C17.0786 31.5444 18.0048 31.543 18.7183 31.4892C19.4098 31.4371 19.7269 31.3448 19.9254 31.2528C20.6154 30.9332 21.169 30.3742 21.4855 29.6774C21.5766 29.4769 21.668 29.1567 21.7196 28.4584C21.7729 27.7379 21.7743 26.8026 21.7743 25.3962H26.087L26.087 25.4757C26.087 26.7817 26.087 27.8807 26.0203 28.7827C25.9507 29.7251 25.7995 30.6258 25.4054 31.4933C24.6584 33.1376 23.352 34.4568 21.7237 35.2111C20.8646 35.6091 19.9726 35.7618 19.0394 35.8321C18.1461 35.8995 17.0579 35.8994 15.7645 35.8994L11.5658 35.8994C10.1475 35.8994 8.95432 35.8995 7.97756 35.8189C6.95585 35.7346 5.98263 35.5514 5.05819 35.0757C3.65002 34.3512 2.50516 33.1951 1.78766 31.7731C1.31663 30.8396 1.1352 29.8568 1.05172 28.8251C0.971918 27.8388 0.971947 26.6338 0.971979 25.2016V21.2358C0.971947 19.8037 0.971918 18.5987 1.05172 17.6124C1.1352 16.5806 1.31663 15.5979 1.78766 14.6643C2.50516 13.2424 3.65002 12.0863 5.05819 11.3617C5.98263 10.8861 6.95585 10.7029 7.97756 10.6186C8.95434 10.538 10.1476 10.538 11.5658 10.5381H23.9306C25.1216 10.5381 26.087 11.513 26.087 12.7156C26.087 13.9181 25.1216 14.893 23.9306 14.893H11.6522C10.1248 14.893 9.10893 14.8947 8.32875 14.9591C7.57374 15.0214 7.23125 15.1314 7.0161 15.2421C6.41942 15.5491 5.93431 16.0389 5.63028 16.6415C5.52066 16.8587 5.41176 17.2046 5.35008 17.967C5.28633 18.7548 5.28466 19.7807 5.28466 21.323V25.1144C5.28466 26.6568 5.28633 27.6826 5.35008 28.4705C5.41176 29.2329 5.52066 29.5787 5.63028 29.796C5.93431 30.3985 6.41942 30.8884 7.0161 31.1954C7.23125 31.3061 7.57374 31.4161 8.32875 31.4784Z"
          fill="url(#paint5_radial_1333_5403)"/>
    <path d="M59.005 24.114V26.3344C59.005 26.6513 58.7489 26.9102 58.4332 26.9102H46.2243C46.2075 26.9102 46.1888 26.9102 46.172 26.9082C45.5593 26.8913 45.0208 26.5744 44.6957 26.0982C44.6938 26.0944 44.6921 26.0906 44.6883 26.087C44.5398 25.8355 44.4544 25.5413 44.4544 25.2242C44.4544 24.8736 44.5602 24.551 44.7404 24.2809C44.7553 24.2585 44.7702 24.236 44.7867 24.2152L54.0577 11.2547H45.7544C45.4406 11.2547 45.1842 10.9959 45.1842 10.6771V8.45856C45.1842 8.13976 45.4406 7.88089 45.7544 7.88089H57.3912C57.4042 7.88089 57.4172 7.88089 57.4302 7.8828C57.4338 7.8828 57.4394 7.88089 57.4451 7.8828C58.0784 7.89976 58.6337 8.24101 58.953 8.74919C58.9567 8.75492 58.9586 8.7585 58.9605 8.76233C59.0904 9.00233 59.1627 9.27624 59.1627 9.56686C59.1627 9.91552 59.057 10.2401 58.8768 10.5101C58.8622 10.5326 58.8473 10.5534 58.8305 10.5758L49.5578 23.5382H58.4332C58.7489 23.5382 59.005 23.7971 59.005 24.114Z"
          fill="white"/>
    <path d="M66.8144 24.0573C64.7231 24.0573 63.2023 22.4126 63.2023 20.1378C63.2023 17.8347 64.7231 16.1901 66.8144 16.1901C68.9035 16.1901 70.3967 17.8347 70.3967 20.1378C70.3967 22.4126 68.9035 24.0573 66.8144 24.0573ZM73.357 13.3657H70.9687C70.653 13.3657 70.3967 13.6246 70.3967 13.9417V15.53C69.3121 13.9959 67.6295 13.0901 65.674 13.0901C62.1438 13.0901 59.5642 16.0532 59.5642 20.1378C59.5642 24.2223 62.1438 27.1572 65.674 27.1572C67.6295 27.1572 69.3121 26.2533 70.3967 24.7436V26.3059C70.3967 26.6395 70.666 26.9096 70.9947 26.9096H73.357C73.6876 26.9096 73.9551 26.6395 73.9551 26.3059V13.9677C73.9551 13.6358 73.6876 13.3657 73.357 13.3657Z"
          fill="white"/>
    <path d="M84.6067 13.0905C82.7599 13.0905 81.2389 13.9678 80.37 15.4219V13.9411C80.37 13.5573 80.1534 13.3653 79.8001 13.3653H77.4099C77.0578 13.3653 76.8412 13.5573 76.8412 13.9411V26.3065C76.8412 26.6902 77.0578 26.9102 77.4099 26.9102H79.8001C80.1534 26.9102 80.37 26.6902 80.37 26.3065V18.9584C80.37 17.1487 81.5111 15.9425 83.2211 15.9425C84.8777 15.9425 85.9911 17.1487 85.9911 18.9584V26.3065C85.9911 26.6398 86.2585 26.9102 86.5877 26.9102H88.9512C89.2801 26.9102 89.5478 26.6398 89.5478 26.3065V18.438C89.5478 15.2839 87.511 13.0905 84.6067 13.0905Z"
          fill="white"/>
    <path d="M98.7702 24.0573C96.6792 24.0573 95.1879 22.4126 95.1879 20.1378C95.1879 17.8347 96.6792 16.1901 98.7702 16.1901C100.889 16.1901 102.382 17.8347 102.382 20.1378C102.382 22.4126 100.889 24.0573 98.7702 24.0573ZM98.7981 13.0901C94.5898 13.0901 91.5477 16.0532 91.5477 20.1378C91.5477 24.2223 94.5898 27.1572 98.7981 27.1572C102.98 27.1572 106.021 24.2223 106.021 20.1378C106.021 16.0532 102.98 13.0901 98.7981 13.0901Z"
          fill="white"/>
    <defs>
        <linearGradient id="paint0_linear_1333_5403" x1="17.9853" y1="25.1996" x2="18.2734" y2="0.00285435"
                        gradientUnits="userSpaceOnUse">
            <stop offset="0.43118" stop-color="#498FFD"/>
            <stop offset="1" stop-color="#16D1D6"/>
        </linearGradient>
        <radialGradient id="paint1_radial_1333_5403" cx="0" cy="0" r="1" gradientUnits="userSpaceOnUse"
                        gradientTransform="translate(11.0368 7.71385) rotate(-15.5605) scale(16.2958 16.259)">
            <stop stop-color="#18CFD7"/>
            <stop offset="1" stop-color="#18CFD7" stop-opacity="0"/>
        </radialGradient>
        <radialGradient id="paint2_radial_1333_5403" cx="0" cy="0" r="1" gradientUnits="userSpaceOnUse"
                        gradientTransform="translate(20.5588 14.9139) rotate(152.373) scale(6.09988 6.08753)">
            <stop stop-color="#4990FE"/>
            <stop offset="0.353962" stop-color="#4990FE"/>
            <stop offset="1" stop-color="#4990FE" stop-opacity="0"/>
        </radialGradient>
        <radialGradient id="paint3_radial_1333_5403" cx="0" cy="0" r="1" gradientUnits="userSpaceOnUse"
                        gradientTransform="translate(13.0956 23.1424) rotate(-45.9158) scale(11.0974 11.0803)">
            <stop stop-color="#4990FE"/>
            <stop offset="0.405688" stop-color="#4990FE"/>
            <stop offset="1" stop-color="#4990FE" stop-opacity="0"/>
        </radialGradient>
        <linearGradient id="paint4_linear_1333_5403" x1="26.2206" y1="35.9993" x2="26.3132" y2="10.2853"
                        gradientUnits="userSpaceOnUse">
            <stop stop-color="#2950FF"/>
            <stop offset="0.821717" stop-color="#498FFD"/>
        </linearGradient>
        <radialGradient id="paint5_radial_1333_5403" cx="0" cy="0" r="1" gradientUnits="userSpaceOnUse"
                        gradientTransform="translate(26.2206 25.1993) rotate(129.312) scale(10.9677 10.854)">
            <stop offset="0.337169" stop-color="#2950FF"/>
            <stop offset="0.792226" stop-color="#2950FF" stop-opacity="0"/>
        </radialGradient>
    </defs>
</svg>
