<svg width="50" height="50" viewBox="0 0 50 50" fill="none" xmlns="http://www.w3.org/2000/svg">
    <path d="M44.2307 1.82249C45.2928 0.760405 47.0148 0.760404 48.0769 1.82249C49.139 2.88457 49.139 4.60655 48.0769 5.66863L5.76927 47.9762C4.70718 49.0383 2.9852 49.0383 1.92312 47.9763C0.861035 46.9142 0.861034 45.1922 1.92312 44.1301L44.2307 1.82249Z"
          fill="white"/>
    <path d="M1.92283 5.66917C0.860747 4.60708 0.860745 2.8851 1.92283 1.82302C2.98491 0.760938 4.70689 0.760937 5.76897 1.82302L48.0766 44.1306C49.1387 45.1927 49.1387 46.9147 48.0766 47.9768C47.0145 49.0389 45.2925 49.0389 44.2305 47.9768L1.92283 5.66917Z"
          fill="white"/>
</svg>
