<svg width="28" height="28" viewBox="0 0 28 28" fill="none" xmlns="http://www.w3.org/2000/svg">
    <path fill-rule="evenodd" clip-rule="evenodd"
          d="M0 19.712V8.274C0 3.332 3.1794 0 7.924 0H20.062C24.808 0 28 3.332 28 8.274V19.712C28 24.668 24.808 28 20.062 28H7.924C3.1794 28 0 24.668 0 19.712ZM15.05 17.1779V8.28789C15.05 7.69989 14.574 7.23789 14 7.23789C13.412 7.23789 12.95 7.69989 12.95 8.28789V17.1779L9.492 13.7059C9.296 13.5099 9.016 13.3979 8.75 13.3979C8.4854 13.3979 8.218 13.5099 8.008 13.7059C7.602 14.1119 7.602 14.7839 8.008 15.1899L13.258 20.4679C13.65 20.8599 14.35 20.8599 14.742 20.4679L19.992 15.1899C20.398 14.7839 20.398 14.1119 19.992 13.7059C19.572 13.2999 18.914 13.2999 18.494 13.7059L15.05 17.1779Z"
          fill="#16D1D6"/>
</svg>
