<svg width="22" height="22" viewBox="0 0 22 22" fill="none" xmlns="http://www.w3.org/2000/svg">
    <path fill-rule="evenodd" clip-rule="evenodd"
          d="M2.33979 2.51641C3.39906 1.37881 4.90384 0.75 6.66589 0.75L15.3349 0.75C17.097 0.75 18.6016 1.37883 19.6606 2.51652C20.7121 3.64612 21.2499 5.19612 21.2499 6.916V15.084C21.2499 16.8053 20.7088 18.3551 19.6563 19.484C18.5967 20.6207 17.0927 21.25 15.3349 21.25L6.66589 21.25C4.90384 21.25 3.39906 20.6212 2.33979 19.4836C1.28802 18.354 0.749893 16.804 0.749893 15.084L0.749893 6.916C0.749893 5.19597 1.28802 3.64596 2.33979 2.51641ZM3.8035 3.87934C3.15477 4.57604 2.74989 5.60903 2.74989 6.916L2.74989 15.084C2.74989 16.391 3.15477 17.424 3.8035 18.1207C4.44473 18.8093 5.39794 19.25 6.66589 19.25L15.3349 19.25C16.5971 19.25 17.5506 18.8098 18.1934 18.1202C18.8435 17.4229 19.2499 16.3897 19.2499 15.084V6.916C19.2499 5.60889 18.8452 4.57588 18.1967 3.87923C17.5557 3.19067 16.6028 2.75 15.3349 2.75L6.66589 2.75C5.39794 2.75 4.44473 3.19069 3.8035 3.87934Z"
          fill="white"/>
    <path fill-rule="evenodd" clip-rule="evenodd"
          d="M10.9999 5.91406C11.5522 5.91406 11.9999 6.36178 11.9999 6.91406L11.9999 15.0861C11.9999 15.6383 11.5522 16.0861 10.9999 16.0861C10.4476 16.0861 9.99989 15.6383 9.99989 15.0861L9.99989 6.91406C9.99989 6.36178 10.4476 5.91406 10.9999 5.91406Z"
          fill="white"/>
    <path fill-rule="evenodd" clip-rule="evenodd"
          d="M6.54629 10.6137C6.93765 10.224 7.57081 10.2253 7.9605 10.6167L10.9999 13.669L14.0393 10.6167C14.429 10.2253 15.0621 10.224 15.4535 10.6137C15.8448 11.0033 15.8462 11.6365 15.4565 12.0279L11.7085 15.7919C11.5208 15.9803 11.2658 16.0863 10.9999 16.0863C10.7339 16.0863 10.4789 15.9803 10.2913 15.7919L6.54328 12.0279C6.15359 11.6365 6.15494 11.0033 6.54629 10.6137Z"
          fill="white"/>
</svg>
