<svg width="28" height="28" viewBox="0 0 28 28" fill="none" xmlns="http://www.w3.org/2000/svg">
    <path fill-rule="evenodd" clip-rule="evenodd"
          d="M28 8.288L28 19.726C28 24.668 24.8206 28 20.076 28L7.938 28C3.192 28 2.91293e-07 24.668 7.23336e-07 19.726L1.72328e-06 8.288C2.15655e-06 3.332 3.192 -1.69195e-06 7.938 -1.27704e-06L20.076 -2.159e-07C24.8206 1.98886e-07 28 3.332 28 8.288ZM12.95 10.8219L12.95 19.7119C12.95 20.2999 13.426 20.7619 14 20.7619C14.588 20.7619 15.05 20.2999 15.05 19.7119L15.05 10.8219L18.508 14.2939C18.704 14.4899 18.984 14.6019 19.25 14.6019C19.5146 14.6019 19.782 14.4899 19.992 14.2939C20.398 13.8879 20.398 13.2159 19.992 12.8099L14.742 7.53192C14.35 7.13992 13.65 7.13992 13.258 7.53192L8.008 12.8099C7.602 13.2159 7.602 13.8879 8.008 14.2939C8.428 14.6999 9.086 14.6999 9.506 14.2939L12.95 10.8219Z"
          fill="#1F8FEB"/>
</svg>
