<svg width="20" height="20" viewBox="0 0 20 20" fill="none" xmlns="http://www.w3.org/2000/svg">
    <path fill-rule="evenodd" clip-rule="evenodd"
          d="M18.2629 18.1023C17.2788 19.1592 15.8762 19.75 14.2168 19.75L5.78207 19.75C4.1227 19.75 2.72026 19.1591 1.73645 18.1023C0.75829 17.0515 0.249869 15.601 0.249869 13.9736L0.24987 6.02629C0.24987 4.39785 0.761344 2.94751 1.74048 1.89721C2.72504 0.84108 4.12702 0.249875 5.78207 0.249875L14.2168 0.249876C15.8762 0.249876 17.2788 0.840725 18.2629 1.89753C19.2413 2.9483 19.75 4.39879 19.75 6.02629L19.75 13.9736C19.75 15.6011 19.2413 17.0516 18.2629 18.1023ZM17.1651 17.0802C17.8412 16.354 18.25 15.2913 18.25 13.9736L18.25 6.02629C18.25 4.70858 17.8412 3.64586 17.1651 2.91973C16.4946 2.19963 15.5056 1.74988 14.2168 1.74988L5.78207 1.74987C4.49871 1.74987 3.50959 2.19927 2.83766 2.92005C2.16029 3.64665 1.74987 4.70951 1.74987 6.02629L1.74987 13.9736C1.74987 15.2914 2.15848 16.3541 2.83439 17.0802C3.50464 17.8003 4.49331 18.25 5.78207 18.25L14.2168 18.25C15.5056 18.25 16.4946 17.8002 17.1651 17.0802Z"
          fill="white"/>
    <path fill-rule="evenodd" clip-rule="evenodd"
          d="M5.27438 9.99951C5.27438 9.5853 5.61017 9.24951 6.02438 9.24951L13.9756 9.24951C14.3898 9.24951 14.7256 9.5853 14.7256 9.99951C14.7256 10.4137 14.3898 10.7495 13.9756 10.7495L6.02438 10.7495C5.61017 10.7495 5.27438 10.4137 5.27438 9.99951Z"
          fill="white"/>
    <path fill-rule="evenodd" clip-rule="evenodd"
          d="M9.78199 14.1757C9.48972 13.8822 9.49073 13.4073 9.78425 13.115L12.9128 9.99976L9.78425 6.88449C9.49073 6.59222 9.48972 6.11734 9.78199 5.82383C10.0743 5.53031 10.5491 5.5293 10.8426 5.82157L14.5049 9.4683C14.6463 9.60904 14.7257 9.80029 14.7257 9.99976C14.7257 10.1992 14.6463 10.3905 14.5049 10.5312L10.8426 14.1779C10.5491 14.4702 10.0743 14.4692 9.78199 14.1757Z"
          fill="white"/>
</svg>
