<svg width="18" height="18" viewBox="0 0 18 18" fill="none" xmlns="http://www.w3.org/2000/svg">
    <path fill-rule="evenodd" clip-rule="evenodd"
          d="M1.66229 13.4897C1.66229 13.2136 1.88615 12.9897 2.16229 12.9897H7.58788C7.86402 12.9897 8.08788 13.2136 8.08788 13.4897C8.08788 13.7659 7.86402 13.9897 7.58788 13.9897H2.16229C1.88615 13.9897 1.66229 13.7659 1.66229 13.4897Z"
          fill="white"/>
    <path fill-rule="evenodd" clip-rule="evenodd"
          d="M13.6784 11.8301C12.7615 11.8301 12.0184 12.5725 12.0184 13.4901C12.0184 14.4069 12.7616 15.1501 13.6784 15.1501C14.5952 15.1501 15.3384 14.4069 15.3384 13.4901C15.3384 12.5725 14.5954 11.8301 13.6784 11.8301ZM11.0184 13.4901C11.0184 12.02 12.2095 10.8301 13.6784 10.8301C15.1474 10.8301 16.3384 12.02 16.3384 13.4901C16.3384 14.9592 15.1475 16.1501 13.6784 16.1501C12.2093 16.1501 11.0184 14.9592 11.0184 13.4901Z"
          fill="white"/>
    <path fill-rule="evenodd" clip-rule="evenodd"
          d="M9.91203 4.69678C9.91203 4.42063 10.1359 4.19678 10.412 4.19678H15.8385C16.1146 4.19678 16.3385 4.42063 16.3385 4.69678C16.3385 4.97292 16.1146 5.19678 15.8385 5.19678H10.412C10.1359 5.19678 9.91203 4.97292 9.91203 4.69678Z"
          fill="white"/>
    <path fill-rule="evenodd" clip-rule="evenodd"
          d="M1.66194 4.69662C1.66194 3.22754 2.85286 2.03662 4.32194 2.03662C5.79103 2.03662 6.98194 3.22754 6.98194 4.69662C6.98194 6.16672 5.79089 7.35662 4.32194 7.35662C2.85299 7.35662 1.66194 6.16672 1.66194 4.69662ZM4.32194 3.03662C3.40514 3.03662 2.66194 3.77982 2.66194 4.69662C2.66194 5.61417 3.40501 6.35662 4.32194 6.35662C5.23887 6.35662 5.98194 5.61417 5.98194 4.69662C5.98194 3.77982 5.23874 3.03662 4.32194 3.03662Z"
          fill="white"/>
</svg>
