<svg width="18" height="18" viewBox="0 0 18 18" fill="none" xmlns="http://www.w3.org/2000/svg">
    <path fill-rule="evenodd" clip-rule="evenodd"
          d="M4.80339 4.24514C5.97685 3.28435 7.41492 2.5 9 2.5C10.5851 2.5 12.0232 3.28435 13.1966 4.24514C14.3758 5.21063 15.3411 6.3977 15.9907 7.30246C16.0075 7.32591 16.0242 7.34913 16.0408 7.37215C16.436 7.92156 16.7473 8.35435 16.7473 9C16.7473 9.64565 16.436 10.0784 16.0408 10.6278C16.0242 10.6509 16.0075 10.6741 15.9907 10.6975C15.3411 11.6023 14.3758 12.7894 13.1966 13.7549C12.0232 14.7157 10.5851 15.5 9 15.5C7.41492 15.5 5.97685 14.7157 4.80339 13.7549C3.62422 12.7894 2.65886 11.6023 2.00933 10.6975C1.9925 10.6741 1.97579 10.6509 1.95924 10.6278C1.56401 10.0784 1.25269 9.64565 1.25269 9C1.25269 8.35435 1.56402 7.92156 1.95924 7.37215C1.97579 7.34913 1.9925 7.32591 2.00933 7.30246C2.65886 6.3977 3.62422 5.21063 4.80339 4.24514ZM5.43691 5.01888C4.35212 5.90708 3.44525 7.01703 2.82168 7.88564C2.3566 8.53347 2.25269 8.70735 2.25269 9C2.25269 9.29265 2.3566 9.46654 2.82168 10.1144C3.44525 10.983 4.35212 12.0929 5.43691 12.9811C6.52742 13.874 7.74504 14.5 9 14.5C10.255 14.5 11.4726 13.874 12.5631 12.9811C13.6479 12.0929 14.5548 10.983 15.1783 10.1144C15.6434 9.46654 15.7473 9.29265 15.7473 9C15.7473 8.70735 15.6434 8.53347 15.1783 7.88564C14.5548 7.01703 13.6479 5.90708 12.5631 5.01888C11.4726 4.12599 10.255 3.5 9 3.5C7.74504 3.5 6.52742 4.12599 5.43691 5.01888ZM6.25 9C6.25 7.48122 7.48122 6.25 9 6.25C10.5188 6.25 11.75 7.48122 11.75 9C11.75 10.5188 10.5188 11.75 9 11.75C7.48122 11.75 6.25 10.5188 6.25 9ZM9 7.25C8.03351 7.25 7.25 8.0335 7.25 9C7.25 9.9665 8.03351 10.75 9 10.75C9.9665 10.75 10.75 9.9665 10.75 9C10.75 8.0335 9.9665 7.25 9 7.25Z"
          fill="white"/>
</svg>
