<svg width="1em" height="1em" viewBox="0 0 20 16" fill="currentColor" xmlns="http://www.w3.org/2000/svg">
    <path fill-rule="evenodd" clip-rule="evenodd"
          d="M13.9657 2.33887C13.9657 1.92465 14.3015 1.58887 14.7157 1.58887C16.4664 1.58887 17.8869 3.00802 17.8869 4.75935C17.8869 6.51068 16.4664 7.92983 14.7157 7.92983C14.3015 7.92983 13.9657 7.59404 13.9657 7.17983C13.9657 6.76561 14.3015 6.42983 14.7157 6.42983C15.6386 6.42983 16.3869 5.68163 16.3869 4.75935C16.3869 3.83706 15.6386 3.08887 14.7157 3.08887C14.3015 3.08887 13.9657 2.75308 13.9657 2.33887Z"
    />
    <path fill-rule="evenodd" clip-rule="evenodd"
          d="M15.0806 9.758C15.1091 9.34477 15.4672 9.03288 15.8804 9.06138C16.3125 9.09118 16.7438 9.1523 17.1702 9.2477C17.4733 9.30761 17.8407 9.40583 18.1812 9.57574C18.521 9.74525 18.9052 10.0221 19.1212 10.4746L19.1216 10.4756C19.367 10.9917 19.3666 11.5912 19.1219 12.1072L19.1216 12.1079C18.9059 12.5614 18.521 12.838 18.1824 13.0075C17.8391 13.1794 17.4683 13.279 17.1668 13.341C16.761 13.4244 16.3645 13.1631 16.2811 12.7574C16.1976 12.3517 16.4589 11.9551 16.8646 11.8717C17.1061 11.8221 17.3337 11.7549 17.511 11.6662C17.6925 11.5753 17.7506 11.4977 17.7669 11.4639C17.8186 11.3544 17.8182 11.2276 17.767 11.1197L18.4443 10.7977L17.7674 11.1207C17.7509 11.0861 17.6923 11.0081 17.5116 10.918C17.3357 10.8302 17.1096 10.7643 16.8716 10.7177L16.851 10.7134C16.4991 10.6342 16.1401 10.5829 15.7772 10.5578C15.364 10.5293 15.0521 10.1712 15.0806 9.758Z"
    />
    <path fill-rule="evenodd" clip-rule="evenodd"
          d="M5.28413 3.08887C4.36123 3.08887 3.61289 3.83706 3.61289 4.75935C3.61289 5.68163 4.36123 6.42983 5.28413 6.42983C5.69835 6.42983 6.03413 6.76561 6.03413 7.17983C6.03413 7.59404 5.69835 7.92983 5.28413 7.92983C3.53342 7.92983 2.11289 6.51068 2.11289 4.75935C2.11289 3.00802 3.53342 1.58887 5.28413 1.58887C5.69835 1.58887 6.03413 1.92465 6.03413 2.33887C6.03413 2.75308 5.69835 3.08887 5.28413 3.08887Z"
    />
    <path fill-rule="evenodd" clip-rule="evenodd"
          d="M4.91924 9.758C4.94774 10.1712 4.63586 10.5293 4.22262 10.5578C3.85973 10.5829 3.50069 10.6342 3.14878 10.7134L3.1282 10.7177C2.89023 10.7643 2.66418 10.8302 2.48839 10.9179C2.30787 11.008 2.24977 11.0858 2.23357 11.1198L2.23298 11.1211C2.18172 11.2283 2.18138 11.3541 2.23328 11.463L2.23399 11.4645L2.23399 11.4645C2.24969 11.4976 2.30711 11.5752 2.48899 11.6662C2.6661 11.7549 2.89368 11.8221 3.13517 11.8717C3.5409 11.9551 3.80217 12.3517 3.71874 12.7574C3.63531 13.1631 3.23877 13.4244 2.83304 13.341C2.53155 13.279 2.16071 13.1794 1.81739 13.0075C1.47903 12.8381 1.09427 12.5614 0.878947 12.1078C0.633044 11.5914 0.632722 10.9913 0.879312 10.4749C1.0949 10.0222 1.47901 9.74525 1.81856 9.57579C2.15909 9.40584 2.52655 9.30761 2.82959 9.2477C3.25596 9.1523 3.68733 9.09118 4.11942 9.06138C4.53265 9.03288 4.89075 9.34477 4.91924 9.758Z"
    />
    <path fill-rule="evenodd" clip-rule="evenodd"
          d="M5.91741 11.899C5.78997 12.0325 5.72303 12.1822 5.72303 12.3959C5.72303 12.6081 5.78966 12.7558 5.91701 12.888C6.06214 13.0387 6.31257 13.1929 6.70689 13.3252C7.50314 13.5922 8.65714 13.6963 9.99601 13.6963C11.3408 13.6963 12.494 13.5885 13.2875 13.3186C13.6804 13.185 13.9299 13.0297 14.0746 12.878C14.2021 12.7444 14.269 12.5948 14.269 12.3814C14.269 12.1693 14.2024 12.0216 14.075 11.8893C13.9298 11.7386 13.6792 11.5844 13.2849 11.4522C12.4885 11.1851 11.3345 11.0811 9.99601 11.0811C8.65109 11.0811 7.49791 11.1886 6.7044 11.4584C6.31158 11.592 6.06214 11.7473 5.91741 11.899ZM6.22157 10.0382C7.25852 9.6857 8.61683 9.58105 9.99601 9.58105C11.3663 9.58105 12.7238 9.68195 13.7617 10.03C14.2845 10.2053 14.7818 10.4611 15.1552 10.8486C15.5463 11.2546 15.769 11.7732 15.769 12.3814C15.769 12.9878 15.5485 13.5062 15.1598 13.9135C14.7884 14.3027 14.2929 14.5611 13.7705 14.7388C12.7336 15.0914 11.3753 15.1963 9.99601 15.1963C8.62531 15.1963 7.26782 15.0954 6.22997 14.7473C5.70725 14.572 5.20998 14.3162 4.83667 13.9286C4.44558 13.5226 4.22303 13.004 4.22303 12.3959C4.22303 11.7894 4.44345 11.2709 4.83218 10.8635C5.20362 10.4742 5.69915 10.2159 6.22157 10.0382Z"
    />
    <path fill-rule="evenodd" clip-rule="evenodd"
          d="M9.99601 2.30273C8.62373 2.30273 7.52711 3.39935 7.52711 4.77163C7.52711 6.14479 8.62385 7.24129 9.99601 7.24129C11.3682 7.24129 12.4649 6.14479 12.4649 4.77163C12.4649 3.39935 11.3683 2.30273 9.99601 2.30273ZM6.02711 4.77163C6.02711 2.57092 7.7953 0.802734 9.99601 0.802734C12.1967 0.802734 13.9649 2.57092 13.9649 4.77163C13.9649 6.97298 12.1968 8.74129 9.99601 8.74129C7.79519 8.74129 6.02711 6.97298 6.02711 4.77163Z"
    />
</svg>
