<svg xmlns="http://www.w3.org/2000/svg" width="24" height="24" fill="none"><path fill="#fff" d="M22.159 19.301c-.113.715-.552 1.21-1.15 1.583-.63.39-1.328.598-2.047.749-1.02.216-2.058.32-3.1.34-1.678.03-3.355.032-5.033.021a17.7 17.7 0 0 1-2.92-.253c-.894-.154-1.758-.394-2.55-.852-1.034-.596-1.727-1.48-2.174-2.572-.388-.946-.6-1.938-.692-2.951a35 35 0 0 1-.148-2.606.286.286 0 0 1 .312-.287c1.34.112 2.695.1 4.038.04 1.745-.077 3.188-1.395 3.482-3.115.021-.132.086-.143.183-.16a3.57 3.57 0 0 0 1.837-.865c.824-.722 1.263-1.633 1.303-2.725.029-.8.03-1.603.03-2.404 0-.158.128-.286.286-.285.993.006 1.99.045 2.98.107 1.167.073 2.322.226 3.424.644.568.216 1.09.507 1.486.984.326.396.501.855.49 1.364-.008.415-.018.838-.102 1.243-.175.84-.67 1.213-1.524 1.218-.606.003-1.215-.03-1.818.016-1.452.11-2.556.817-3.232 2.103-1.042 1.978-.293 4.329 1.68 5.377a3.75 3.75 0 0 0 1.773.44c.544.003 1.085-.014 1.63.008.236.008.484.051.705.135.39.148.614.471.735.86.186.606.213 1.226.116 1.843"></path><path fill="#fff" d="M11.991 2.245a2.1 2.1 0 0 0-.213-.938C11.356.483 10.68.046 9.756.022 8.899 0 8.04 0 7.184 0c-.337 0-.673.005-1.007.049-.903.113-1.506.622-1.835 1.46-.148.378-.142.782-.15 1.184-.003.172 0 .348 0 .56-.342 0-.666-.01-.989.003-.466.02-.9.149-1.276.437-.617.469-.908 1.1-.916 1.86-.013.943-.01 1.887-.01 2.83 0 .391.015.785.153 1.157.256.69.913 1.45 2.117 1.469a81 81 0 0 0 3.231-.003c.965-.021 1.651-.507 2.053-1.386.164-.358.177-.746.183-1.134.005-.224 0-.448 0-.693.25 0 .482.005.713 0 .404-.01.811-.022 1.185-.2.876-.412 1.334-1.116 1.353-2.078.021-1.089.01-2.18.002-3.27M7.348 9.033c-.083.356-.444.62-.846.63q-.89.024-1.774.022c-.493 0-.986-.005-1.479-.024-.417-.014-.757-.253-.848-.607a2.5 2.5 0 0 1-.068-.587q-.012-1.205-.002-2.41c0-.25.008-.504.048-.752a.83.83 0 0 1 .773-.704c.331-.024.663-.03.994-.032q1.11-.006 2.222 0c.03 0 .059.003.116.008l-.728.747-1.287 1.32c-.21.216-.264.467-.153.745.113.28.339.41.635.412q1.143.004 2.29.003h.169c.003.42.032.83-.062 1.229m3.326-3.82c0 .143-.01.289-.027.429-.048.44-.377.752-.835.787q-.314.026-.633.027c-.875.003-1.75 0-2.663 0 .237-.243.447-.461.66-.677q.672-.69 1.344-1.38c.22-.226.285-.496.17-.763-.125-.28-.35-.41-.652-.41H5.525c0-.1-.003-.19 0-.285.005-.256-.006-.515.024-.766.057-.485.382-.781.867-.811q.47-.028.943-.024c.797.002 1.597.013 2.394.024.259.003.48.094.66.286.137.148.22.315.234.517.014.224.03.448.03.671q.007 1.188-.003 2.375M22.875 10.94c-.062-.383-.326-.626-.708-.682a15 15 0 0 0-2.187-.149c-.468 0-.948-.021-1.408.054-1.145.184-1.942 1.205-1.926 2.405.016 1.127.88 2.127 2.004 2.272.441.057.894.035 1.34.049v-.02c.122 0 .243.009.365-.002.608-.043 1.217-.083 1.823-.143a.766.766 0 0 0 .692-.636c.17-1.048.175-2.1.005-3.148m-3.856 2.342a.78.78 0 0 1-.784-.8.79.79 0 1 1 1.58.013.783.783 0 0 1-.796.787"></path></svg>