<svg width="24" height="24" viewBox="0 0 24 24" fill="none" xmlns="http://www.w3.org/2000/svg">
    <g clip-path="url(#clip0_1325_5192)">
        <path d="M20.4856 3.51472C18.8074 1.83649 16.6692 0.693601 14.3414 0.23058C12.0136 -0.232443 9.60083 0.0051972 7.40812 0.913448C5.21541 1.8217 3.34127 3.35977 2.02269 5.33316C0.704111 7.30655 0.000323909 9.62662 0.000323909 12C0.000323909 14.3734 0.704112 16.6935 2.02269 18.6668C3.34127 20.6402 5.21541 22.1783 7.40812 23.0866C9.60083 23.9948 12.0136 24.2324 14.3414 23.7694C16.6692 23.3064 18.8074 22.1635 20.4856 20.4853L16.8369 16.8366C15.8803 17.7932 14.6616 18.4446 13.3347 18.7086C12.0079 18.9725 10.6326 18.837 9.38277 18.3193C8.13292 17.8016 7.06466 16.9249 6.31307 15.8001C5.56148 14.6753 5.16032 13.3528 5.16032 12C5.16032 10.6472 5.56148 9.32473 6.31307 8.1999C7.06466 7.07507 8.13292 6.19837 9.38277 5.68067C10.6326 5.16296 12.0079 5.02751 13.3347 5.29143C14.6616 5.55535 15.8803 6.2068 16.8369 7.16339L20.4856 3.51472Z"
              fill="white"/>
        <path d="M21 9L23.5981 10.5V13.5L21 15L18.4019 13.5V10.5L21 9Z" fill="white"/>
    </g>
    <defs>
        <clipPath id="clip0_1325_5192">
            <rect width="24" height="24" fill="white"/>
        </clipPath>
    </defs>
</svg>
